<svg width="152" height="37" viewBox="0 0 152 37" fill="none" xmlns="http://www.w3.org/2000/svg">
<rect x="17" y="3" width="3" height="16" fill="#4D64AE"/>
<rect x="131" y="3" width="3" height="16" fill="#4D64AE"/>
<rect x="20" y="3" width="3" height="111" transform="rotate(-90 20 3)" fill="#4D64AE"/>
<rect x="20" y="22" width="3" height="111" transform="rotate(-90 20 22)" fill="#4D64AE"/>
<rect x="22" y="4" width="7" height="14" fill="#CA3C32"/>
<rect x="31" y="4" width="7" height="14" fill="#CA3C32"/>
<rect x="40" y="4" width="7" height="14" fill="#399746"/>
<rect x="49" y="4" width="7" height="14" fill="#399746"/>
<rect x="58" y="4" width="7" height="14" fill="#9259A3"/>
<rect x="67" y="4" width="7" height="14" fill="#9259A3"/>
<path d="M0 35.875V28H6.75556V29.125H7.88148V32.5H6.75556V33.625H2.25185V35.875H0ZM2.25185 32.5H5.62963V29.125H2.25185V32.5Z" fill="#4D64AE"/>
<path d="M10.1333 35.875V34.75H9.00741V33.625H11.2593V34.75H14.637V32.5H10.1333V31.375H9.00741V29.125H10.1333V28H15.763V29.125H16.8889V30.25H14.637V29.125H11.2593V31.375H15.763V32.5H16.8889V34.75H15.763V35.875H10.1333Z" fill="#4D64AE"/>
<path d="M18.0148 35.875V28H24.7704V29.125H25.8963V32.5H23.6444V33.625H24.7704V34.75H25.8963V35.875H22.5185V34.75H21.3926V33.625H20.2667V35.875H18.0148ZM20.2667 32.5H22.5185V31.375H23.6444V29.125H20.2667V32.5Z" fill="#4D64AE"/>
<path d="M27.0222 35.875V28H33.7778V29.125H34.9037V32.5H33.7778V33.625H29.2741V35.875H27.0222ZM29.2741 32.5H32.6519V29.125H29.2741V32.5Z" fill="#4D64AE"/>
<path d="M39.4074 31.375H40.5333V32.5H39.4074V35.875H37.1556V30.25H39.4074V31.375ZM43.9111 30.25V31.375H40.5333V30.25H43.9111Z" fill="#4D64AE"/>
<path d="M46.163 35.875V34.75H45.037V31.375H46.163V30.25H51.7926V31.375H52.9185V34.75H51.7926V35.875H46.163ZM47.2889 34.75H50.6667V31.375H47.2889V34.75Z" fill="#4D64AE"/>
<path d="M55.1704 37V35.875H59.6741V34.75H55.1704V33.625H54.0444V31.375H55.1704V30.25H61.9259V35.875H60.8V37H55.1704ZM56.2963 33.625H59.6741V31.375H56.2963V33.625Z" fill="#4D64AE"/>
<path d="M66.4296 31.375H67.5556V32.5H66.4296V35.875H64.1778V30.25H66.4296V31.375ZM70.9333 30.25V31.375H67.5556V30.25H70.9333Z" fill="#4D64AE"/>
<path d="M73.1852 35.875V34.75H72.0593V31.375H73.1852V30.25H78.8148V31.375H79.9407V33.625H74.3111V34.75H78.8148V35.875H73.1852ZM74.3111 32.5H77.6889V31.375H74.3111V32.5Z" fill="#4D64AE"/>
<path d="M81.0667 35.875V34.75H86.6963V33.625H82.1926V32.5H81.0667V31.375H82.1926V30.25H87.8222V31.375H83.3185V32.5H87.8222V33.625H88.9481V34.75H87.8222V35.875H81.0667Z" fill="#4D64AE"/>
<path d="M90.0741 35.875V34.75H95.7037V33.625H91.2V32.5H90.0741V31.375H91.2V30.25H96.8296V31.375H92.3259V32.5H96.8296V33.625H97.9556V34.75H96.8296V35.875H90.0741Z" fill="#4D64AE"/>
<path d="M99.0815 35.875V28H105.837V29.125H106.963V31.375H105.837V32.5H106.963V34.75H105.837V35.875H99.0815ZM101.333 31.375H104.711V29.125H101.333V31.375ZM101.333 34.75H104.711V32.5H101.333V34.75Z" fill="#4D64AE"/>
<path d="M109.215 35.875V34.75H108.089V33.625H109.215V32.5H113.719V31.375H109.215V30.25H114.844V31.375H115.97V35.875H109.215ZM110.341 34.75H113.719V33.625H110.341V34.75Z" fill="#4D64AE"/>
<path d="M120.474 31.375H121.6V32.5H120.474V35.875H118.222V30.25H120.474V31.375ZM124.978 30.25V31.375H121.6V30.25H124.978Z" fill="#4D64AE"/>
<path d="M128.356 35.875V33.625H130.607V35.875H128.356Z" fill="#4D64AE"/>
<path d="M139.615 29.125V28H141.867V29.125H139.615ZM136.237 37V35.875H139.615V31.375H138.489V30.25H141.867V35.875H140.741V37H136.237Z" fill="#4D64AE"/>
<path d="M145.244 35.875V34.75H147.496V29.125H146.37V28H149.748V34.75H152V35.875H145.244Z" fill="#4D64AE"/>
</svg>
